<svg width="21" height="21" viewBox="0 0 21 21" fill="none" xmlns="http://www.w3.org/2000/svg">
<path d="M2.66149 11.5201L5.53815 12.7792L13.8282 8.25672L8.82815 14.0901L15.9948 17.3534C16.1174 17.4071 16.2511 17.4304 16.3846 17.4215C16.5181 17.4126 16.6475 17.3717 16.7618 17.3022C16.8762 17.2328 16.9721 17.1368 17.0416 17.0224C17.111 16.908 17.1518 16.7786 17.1607 16.6451L17.994 4.14506C18.0033 4.00038 17.9747 3.85577 17.9112 3.72547C17.8476 3.59517 17.7512 3.48367 17.6314 3.40194C17.5117 3.3202 17.3727 3.27106 17.2282 3.25933C17.0837 3.2476 16.9387 3.2737 16.8073 3.33506L2.64065 10.0017C2.49614 10.0703 2.37437 10.1789 2.28981 10.3147C2.20525 10.4504 2.16146 10.6076 2.16365 10.7676C2.16585 10.9275 2.21393 11.0834 2.30218 11.2168C2.39044 11.3502 2.51515 11.4555 2.66149 11.5201ZM7.16149 19.0901L11.1415 17.1601L7.16149 15.3034V19.0901Z" fill="#133B55"/>
</svg>
