<svg width="651" height="554" viewBox="0 0 651 554" fill="none" xmlns="http://www.w3.org/2000/svg">
<path d="M0 264.799V41.4637H50.4969V93.1922L44.7493 84.5707C48.8547 68.4227 57.0656 56.3801 69.3819 48.4429C81.6982 40.5057 96.2041 36.5371 112.9 36.5371C131.237 36.5371 147.385 41.3268 161.344 50.9062C175.302 60.4855 184.334 73.0755 188.44 88.6762L173.249 89.9078C180.092 72.1176 190.355 58.8433 204.04 50.0851C217.725 41.0531 233.463 36.5371 251.253 36.5371C267.127 36.5371 281.223 40.0952 293.539 47.2113C306.129 54.3274 315.982 64.3173 323.098 77.181C330.214 89.771 333.772 104.414 333.772 121.109V264.799H279.991V133.836C279.991 123.983 278.212 115.498 274.654 108.382C271.096 101.266 266.169 95.7923 259.874 91.9605C253.579 87.8551 245.916 85.8024 236.884 85.8024C228.399 85.8024 220.873 87.8551 214.304 91.9605C207.735 95.7923 202.672 101.266 199.114 108.382C195.556 115.498 193.777 123.983 193.777 133.836V264.799H139.995V133.836C139.995 123.983 138.216 115.498 134.658 108.382C131.1 101.266 126.037 95.7923 119.468 91.9605C113.173 87.8551 105.647 85.8024 96.8883 85.8024C88.4038 85.8024 80.8771 87.8551 74.3084 91.9605C67.7397 95.7923 62.6764 101.266 59.1183 108.382C55.5603 115.498 53.7812 123.983 53.7812 133.836V264.799H0Z" fill="#323F4B"/>
<path d="M465.557 548.074L377.7 324.739H436.408L500.042 500.451H478.283L542.328 324.739H601.036L513.18 548.074H465.557Z" fill="#323F4B"/>
<path d="M240.579 553.001C218.683 553.001 198.703 547.938 180.639 537.811C162.849 527.684 148.617 513.863 137.943 496.346C127.542 478.83 122.342 458.85 122.342 436.407C122.342 413.964 127.542 393.984 137.943 376.467C148.617 358.951 162.849 345.129 180.639 335.002C198.43 324.876 218.409 319.812 240.579 319.812C262.475 319.812 282.317 324.876 300.108 335.002C317.898 345.129 331.993 358.951 342.394 376.467C353.068 393.71 358.405 413.69 358.405 436.407C358.405 458.85 353.068 478.83 342.394 496.346C331.72 513.863 317.487 527.684 299.697 537.811C281.907 547.938 262.201 553.001 240.579 553.001ZM240.579 503.736C252.621 503.736 263.159 500.862 272.191 495.115C281.496 489.367 288.749 481.43 293.95 471.303C299.423 460.903 302.16 449.27 302.16 436.407C302.16 423.269 299.423 411.774 293.95 401.921C288.749 391.794 281.496 383.857 272.191 378.11C263.159 372.088 252.621 369.078 240.579 369.078C228.263 369.078 217.452 372.088 208.146 378.11C198.84 383.857 191.45 391.794 185.977 401.921C180.776 411.774 178.176 423.269 178.176 436.407C178.176 449.27 180.776 460.903 185.977 471.303C191.45 481.43 198.84 489.367 208.146 495.115C217.452 500.862 228.263 503.736 240.579 503.736Z" fill="#323F4B"/>
<g clip-path="url(#clip0_477_30330)">
<path d="M494.302 273.016C558.922 273.016 611.307 220.631 611.307 156.011C611.307 91.3908 558.922 39.0059 494.302 39.0059C429.682 39.0059 377.297 91.3908 377.297 156.011C377.297 220.631 429.682 273.016 494.302 273.016Z" stroke="#C59E7B" stroke-width="22.1062" stroke-linecap="round" stroke-linejoin="round"/>
<path d="M455.296 156.005L481.297 182.006L533.3 130.004" stroke="#C59E7B" stroke-width="22.1062" stroke-linecap="round" stroke-linejoin="round"/>
</g>
<defs>
<clipPath id="clip0_477_30330">
<rect width="312.013" height="312.013" fill="white" transform="translate(338.299)"/>
</clipPath>
</defs>
</svg>
